<?xml version="1.0" standalone="no"?>
<!DOCTYPE svg PUBLIC "-//W3C//DTD SVG 20010904//EN"
 "http://www.w3.org/TR/2001/REC-SVG-20010904/DTD/svg10.dtd">
<svg version="1.0" xmlns="http://www.w3.org/2000/svg"
 width="180.000000pt" height="180.000000pt" viewBox="0 0 180.000000 180.000000"
 preserveAspectRatio="xMidYMid meet">

<g transform="translate(0.000000,180.000000) scale(0.100000,-0.100000)"
fill="#000000" stroke="none">
<path d="M685 1754 c-100 -19 -221 -82 -290 -150 -99 -98 -95 -70 -95 -599 0
-424 2 -463 19 -500 19 -43 78 -100 116 -115 23 -9 20 -14 -91 -179 -63 -93
-114 -172 -114 -175 0 -4 50 -6 111 -6 l110 0 24 55 25 55 415 0 416 0 25 -55
25 -55 115 0 115 0 -115 170 c-64 94 -116 175 -116 180 0 5 9 12 21 15 33 11
88 65 112 109 22 41 22 47 22 506 0 461 0 465 -22 506 -51 95 -218 200 -370
234 -107 24 -348 26 -458 4z m447 -124 c22 -27 23 -39 2 -68 -15 -22 -20 -22
-220 -22 l-204 0 -12 25 c-8 18 -9 35 -2 53 12 35 37 38 253 36 158 -1 165 -2
183 -24z m292 -385 l-1 -170 -507 -3 -506 -2 0 175 0 175 508 -2 507 -3 -1
-170z m-906 -635 c46 -43 36 -111 -20 -134 -85 -36 -154 68 -88 134 26 26 80
26 108 0z m907 -5 c35 -34 33 -78 -4 -116 -33 -33 -50 -35 -90 -14 -40 20 -57
66 -41 105 15 37 35 49 78 50 22 0 41 -8 57 -25z m-169 -289 c12 -30 19 -57
16 -60 -8 -9 -710 -7 -715 2 -3 4 6 31 19 60 l23 52 318 0 318 0 21 -54z"/>
</g>
</svg>
